# xmcd
#
# Track frame offsets:
#	150
#	11831
#	24547
#	38761
#	52075
#	64720
#	81771
#	94584
#	109262
#	120201
#	132809
#	143774
#
# Disc length: 2056 seconds
#
# Revision: 0
# Processed by: cddbd v1.5.2PL0 Copyright (c) Steve Scherf et al.
# Submitted via: EZCDAudioConverter 3.1.7.1
#
DISCID=9708060c
DTITLE=Miki Lamarr - Nancy
DYEAR=2016
DGENRE=
TTITLE0=Get While the Gettin’s Good
TTITLE1=Can I Stay
TTITLE2=Some Velvet Morning (with Mark Harman)
TTITLE3=These Boots Are Made for Walking
TTITLE4=It’s Such a Pretty World Today
TTITLE5=Ladybird (with Mark Harman)
TTITLE6=Flowers On the Wall
TTITLE7=Hello L. A. Bye Bye Birmingham
TTITLE8=Goin’ Down Rockin’ (with Mark Harman)
TTITLE9=My Baby Cried All Night Long
TTITLE10=I Can’t Grow Peaches on a Cherry Tree
TTITLE11=You Only Live Twice
EXTD=
EXTT0=
EXTT1=
EXTT2=
EXTT3=
EXTT4=
EXTT5=
EXTT6=
EXTT7=
EXTT8=
EXTT9=
EXTT10=
EXTT11=
PLAYORDER=
